# xmcd
#
# Track frame offsets: 
#        182
#        14485
#        26125
#        34325
#        45147
#        60117
#        71785
#        81632
#        91137
#        103770
#        116747
#        132205
#        143315
#        153880
#        168915
#        184677
#
# Disc length: 2718 seconds
#
# Revision: 0
# Processed by: cddbd v1.5.2PL0 Copyright (c) Steve Scherf et al.
# Submitted via: ExactAudioCopy v0.95b3
#
DISCID=c90a9c10
DTITLE=R.L. Burnside - First Recordings (MFSL)
DYEAR=1968
DGENRE=Blues
TTITLE0=Just Like A Bird Without A Feather
TTITLE1=Goin' Down South
TTITLE2=Come On In
TTITLE3=Little Babe
TTITLE4=Rollin' And Tumblin'
TTITLE5=Jumper On The Line
TTITLE6=Skinny Woman
TTITLE7=Poor Black Mattie
TTITLE8=Long Haired Doney
TTITLE9=Peaches
TTITLE10=Walkin' Blues
TTITLE11=Hobo Blues
TTITLE12=My Time Ain't Long
TTITLE13=Sat Down On My Bed And Cried
TTITLE14=Come On In (live version)
TTITLE15=Rollin' And Tumblin' (remix)
EXTD=
EXTT0=
EXTT1=
EXTT2=
EXTT3=
EXTT4=
EXTT5=
EXTT6=
EXTT7=
EXTT8=
EXTT9=
EXTT10=
EXTT11=
EXTT12=
EXTT13=
EXTT14=
EXTT15=
PLAYORDER=
